#N canvas -13 695 1229 617 12;
#X obj 678 321 readsf~;
#X msg 763 269 1;
#X msg 813 297 0;
#X obj 693 214 delay 10;
#X msg 609 110 open test2.wav;
#X msg 754 110 open test2.wav;
#X obj 668 435 dac~;
#X obj 675 363 *~ 1;
#X obj 582 166 t b;
#X msg 487 114 open test1.wav;
#N canvas 1390 938 450 300 sensor-input 1;
#X obj 171 166 arduino;
#X msg 125 45 devices;
#X msg 30 127 open \$1;
#X floatatom 30 105 5 0 0 0 - - -;
#X text 68 103;
#X text 71 79;
#X connect 1 0 0 0;
#X connect 2 0 0 0;
#X connect 3 0 2 0;
#X restore 190 100 pd sensor-input;
#X text 629 165 "trigger bang";
#X connect 0 0 7 0;
#X connect 1 0 0 0;
#X connect 2 0 0 0;
#X connect 3 0 1 0;
#X connect 7 0 6 0;
#X connect 7 0 6 1;
#X connect 8 0 3 0;
#X connect 9 0 0 0;
#X connect 9 0 8 0;
