#N canvas 911 68 933 668 12;
#X obj 434 562 readsf~;
#X msg 314 285 open test1.wav;
#X msg 534 461 1, f 4;
#X msg 522 511 0;
#X msg 434 286 open test2.wav;
#X msg 552 286 open test3.wav;
#X obj 534 431 delay 10;
#X obj 434 633 dac~;
#X obj 433 595 *~ 1;
#X obj 534 403 t b;
#N canvas 69 44 811 597 sensor-input 1;
#X obj 247 333 arduino;
#X msg 222 168 devices;
#X msg 253 232 open \$1;
#X floatatom 253 210 5 0 0 0 - - -;
#X obj 571 211 bng 15 250 50 0 empty empty 14 1 -6 1 10 -228856 -1
-1;
#X obj 586 211 bng 15 250 50 0 empty empty 15 1 -6 1 10 -228856 -1
-1;
#X obj 601 211 bng 15 250 50 0 empty empty 16 1 -6 1 10 -228856 -1
-1;
#X obj 616 211 bng 15 250 50 0 empty empty 17 1 -6 1 10 -228856 -1
-1;
#X obj 631 211 bng 15 250 50 0 empty empty 18 1 -6 1 10 -228856 -1
-1;
#X obj 646 211 bng 15 250 50 0 empty empty 19 1 -6 1 10 -228856 -1
-1;
#X text 570 183 A0;
#X text 590 181 .......;
#X text 456 259 <-- COMMAND;
#X msg 346 258;
#N canvas 101 162 791 311 pinMode______________________________________
0;
#X obj 32 22 inlet;
#X obj 288 262 outlet;
#X obj 68 22 inlet;
#X obj 104 22 inlet;
#X obj 140 22 inlet;
#X obj 176 22 inlet;
#X obj 212 22 inlet;
#X obj 248 22 inlet;
#X obj 284 22 inlet;
#X obj 320 22 inlet;
#X obj 356 22 inlet;
#X obj 392 22 inlet;
#X obj 428 22 inlet;
#X obj 464 22 inlet;
#X obj 500 22 inlet;
#X obj 536 22 inlet;
#X obj 572 22 inlet;
#X obj 608 22 inlet;
#X obj 644 22 inlet;
#X obj 680 22 inlet;
#X obj 716 22 inlet;
#X msg 32 53 0;
#X msg 68 74 1;
#X msg 104 53 2;
#X msg 140 74 3;
#X msg 176 53 4;
#X msg 212 74 5;
#X msg 248 53 6;
#X msg 284 74 7;
#X msg 320 54 8;
#X msg 356 74 9;
#X msg 392 53 10;
#X msg 428 75 11;
#X msg 464 53 12;
#X msg 500 74 13;
#X msg 536 53 14;
#X msg 572 74 15;
#X msg 608 53 16;
#X msg 644 74 17;
#X msg 680 53 18;
#X msg 716 74 19;
#X obj 288 194 t a;
#X msg 288 214 set pinMode \$1 analog \, bang;
#X connect 0 0 21 0;
#X connect 2 0 22 0;
#X connect 3 0 23 0;
#X connect 4 0 24 0;
#X connect 5 0 25 0;
#X connect 6 0 26 0;
#X connect 7 0 27 0;
#X connect 8 0 28 0;
#X connect 9 0 29 0;
#X connect 10 0 30 0;
#X connect 11 0 31 0;
#X connect 12 0 32 0;
#X connect 13 0 33 0;
#X connect 14 0 34 0;
#X connect 15 0 35 0;
#X connect 16 0 36 0;
#X connect 17 0 37 0;
#X connect 18 0 38 0;
#X connect 19 0 39 0;
#X connect 20 0 40 0;
#X connect 21 0 41 0;
#X connect 22 0 41 0;
#X connect 23 0 41 0;
#X connect 24 0 41 0;
#X connect 25 0 41 0;
#X connect 26 0 41 0;
#X connect 27 0 41 0;
#X connect 28 0 41 0;
#X connect 29 0 41 0;
#X connect 30 0 41 0;
#X connect 31 0 41 0;
#X connect 32 0 41 0;
#X connect 33 0 41 0;
#X connect 34 0 41 0;
#X connect 35 0 41 0;
#X connect 36 0 41 0;
#X connect 37 0 41 0;
#X connect 38 0 41 0;
#X connect 39 0 41 0;
#X connect 40 0 41 0;
#X connect 41 0 42 0;
#X connect 42 0 1 0;
#X restore 346 236 pd pinMode______________________________________
;
#X text 645 182 A5;
#X obj 247 371 route analog;
#X obj 249 410 route 0 1 2 3 4 5;
#X obj 384 449 includes/analog.display;
#X text 486 445 A0;
#X text 486 461 A2;
#X text 486 477 A4;
#X obj 384 457 includes/analog.display;
#X obj 384 465 includes/analog.display;
#X obj 384 473 includes/analog.display;
#X obj 384 481 includes/analog.display;
#X obj 384 489 includes/analog.display;
#X text 486 452 ---A1;
#X text 486 468 ---A3;
#X text 486 484 ---A5;
#X obj 121 482 outlet;
#X obj 180 482 outlet;
#X connect 0 0 16 0;
#X connect 1 0 0 0;
#X connect 2 0 0 0;
#X connect 3 0 2 0;
#X connect 4 0 14 14;
#X connect 5 0 14 15;
#X connect 6 0 14 16;
#X connect 7 0 14 17;
#X connect 8 0 14 18;
#X connect 9 0 14 19;
#X connect 13 0 0 0;
#X connect 14 0 13 0;
#X connect 16 0 17 0;
#X connect 17 0 18 0;
#X connect 17 0 30 0;
#X connect 17 1 22 0;
#X connect 17 1 31 0;
#X connect 17 2 23 0;
#X connect 17 3 24 0;
#X connect 17 4 25 0;
#X connect 17 5 26 0;
#X restore 141 58 pd sensor-input;
#X obj 152 121 moses;
#X obj 248 128 spigot;
#X obj 364 130 route;
#X connect 0 0 8 0;
#X connect 1 0 0 0;
#X connect 1 0 9 0;
#X connect 2 0 0 0;
#X connect 3 0 0 0;
#X connect 4 0 0 0;
#X connect 4 0 9 0;
#X connect 5 0 0 0;
#X connect 5 0 9 0;
#X connect 6 0 2 0;
#X connect 8 0 7 0;
#X connect 8 0 7 1;
#X connect 9 0 6 0;
